<svg width="37" height="37" viewBox="0 0 37 37" fill="none" xmlns="http://www.w3.org/2000/svg">
<circle opacity="0.4" cx="18.25" cy="18.9622" r="18" fill="#60E1CB"/>
<path d="M13.19 11.9622C13.1897 12.4926 12.9788 13.0012 12.6035 13.3761C12.2282 13.751 11.7194 13.9614 11.189 13.9612C10.6586 13.9609 10.15 13.7499 9.77508 13.3747C9.4002 12.9994 9.18974 12.4906 9.19 11.9602C9.19027 11.4297 9.40124 10.9211 9.7765 10.5463C10.1518 10.1714 10.6606 9.96092 11.191 9.96118C11.7214 9.96145 12.23 10.1724 12.6049 10.5477C12.9798 10.9229 13.1903 11.4317 13.19 11.9622ZM13.25 15.4422H9.25V27.9622H13.25V15.4422ZM19.57 15.4422H15.59V27.9622H19.53V21.3922C19.53 17.7322 24.3 17.3922 24.3 21.3922V27.9622H28.25V20.0322C28.25 13.8622 21.19 14.0922 19.53 17.1222L19.57 15.4422Z" fill="#292525"/>
</svg>
